<?xml version="1.0" encoding="UTF-8" standalone="no"?>
<!-- Generator: Adobe Illustrator 16.0.0, SVG Export Plug-In . SVG Version: 6.00 Build 0)  -->

<svg
   xmlns:dc="http://purl.org/dc/elements/1.1/"
   xmlns:cc="http://creativecommons.org/ns#"
   xmlns:rdf="http://www.w3.org/1999/02/22-rdf-syntax-ns#"
   xmlns:svg="http://www.w3.org/2000/svg"
   xmlns="http://www.w3.org/2000/svg"
   xmlns:sodipodi="http://sodipodi.sourceforge.net/DTD/sodipodi-0.dtd"
   xmlns:inkscape="http://www.inkscape.org/namespaces/inkscape"
   version="1.1"
   id="Capa_1"
   x="0px"
   y="0px"
   width="554.625px"
   height="554.625px"
   viewBox="0 0 554.625 554.625"
   style="enable-background:new 0 0 554.625 554.625;"
   xml:space="preserve"
   sodipodi:docname="venetianblind.svg"
   inkscape:version="0.92.4 (5da689c313, 2019-01-14)"><metadata
   id="metadata5531"><rdf:RDF><cc:Work
       rdf:about=""><dc:format>image/svg+xml</dc:format><dc:type
         rdf:resource="http://purl.org/dc/dcmitype/StillImage" /><dc:title></dc:title></cc:Work></rdf:RDF></metadata><defs
   id="defs5529">
		
		
		
		
		
		
		
		
		
		
		
		
		
		
		
		
		
		
		
		
		
		
		
		
		
		
		
	</defs><sodipodi:namedview
   pagecolor="#ffffff"
   bordercolor="#666666"
   borderopacity="1"
   objecttolerance="10"
   gridtolerance="10"
   guidetolerance="10"
   inkscape:pageopacity="0"
   inkscape:pageshadow="2"
   inkscape:window-width="1920"
   inkscape:window-height="1137"
   id="namedview5527"
   showgrid="false"
   inkscape:zoom="1.7453234"
   inkscape:cx="277.3125"
   inkscape:cy="277.3125"
   inkscape:window-x="-8"
   inkscape:window-y="-8"
   inkscape:window-maximized="1"
   inkscape:current-layer="g5494" />
<g
   id="g5494">
	<polygon
   id="polygon5484"
   points="9.562,549.844 535.5,549.844 497.25,521.156 47.812,521.156 "
   transform="translate(5.375895,-6.5729597)" /><polygon
   id="polygon5488"
   points="420.75,52.594 430.312,52.594 439.875,52.594 554.625,52.594 554.625,4.781 0,4.781 0,52.594 411.188,52.594 " />
<polygon
   transform="translate(5.375895,-48.066742)"
   id="polygon5484-9"
   points="9.562,549.844 535.5,549.844 497.25,521.156 47.812,521.156 " /><polygon
   transform="translate(5.375895,-89.560516)"
   id="polygon5484-6"
   points="47.812,521.156 9.562,549.844 535.5,549.844 497.25,521.156 " /><polygon
   transform="translate(5.375895,-131.05428)"
   id="polygon5484-5"
   points="497.25,521.156 47.812,521.156 9.562,549.844 535.5,549.844 " /><polygon
   transform="translate(5.375895,-172.54806)"
   id="polygon5484-99"
   points="497.25,521.156 47.812,521.156 9.562,549.844 535.5,549.844 " /><polygon
   transform="translate(5.375895,-214.04184)"
   id="polygon5484-0"
   points="497.25,521.156 47.812,521.156 9.562,549.844 535.5,549.844 " /><polygon
   transform="translate(5.375895,-255.53564)"
   id="polygon5484-2"
   points="497.25,521.156 47.812,521.156 9.562,549.844 535.5,549.844 " /><polygon
   transform="translate(5.375895,-297.02943)"
   id="polygon5484-1"
   points="497.25,521.156 47.812,521.156 9.562,549.844 535.5,549.844 " /><polygon
   transform="translate(5.375895,-338.52321)"
   id="polygon5484-3"
   points="497.25,521.156 47.812,521.156 9.562,549.844 535.5,549.844 " /><polygon
   transform="translate(5.375895,-380.01697)"
   id="polygon5484-8"
   points="497.25,521.156 47.812,521.156 9.562,549.844 535.5,549.844 " /><polygon
   transform="translate(5.375895,-421.51075)"
   id="polygon5484-4"
   points="535.5,549.844 497.25,521.156 47.812,521.156 9.562,549.844 " /><polygon
   transform="translate(5.375895,-463.00452)"
   id="polygon5484-50"
   points="9.562,549.844 535.5,549.844 497.25,521.156 47.812,521.156 " /></g>
<g
   id="g5496">
</g>
<g
   id="g5498">
</g>
<g
   id="g5500">
</g>
<g
   id="g5502">
</g>
<g
   id="g5504">
</g>
<g
   id="g5506">
</g>
<g
   id="g5508">
</g>
<g
   id="g5510">
</g>
<g
   id="g5512">
</g>
<g
   id="g5514">
</g>
<g
   id="g5516">
</g>
<g
   id="g5518">
</g>
<g
   id="g5520">
</g>
<g
   id="g5522">
</g>
<g
   id="g5524">
</g>
</svg>